<?xml version="1.0" encoding="UTF-8"?>
<svg version="1.1" xmlns="http://www.w3.org/2000/svg" width="259" height="194">
<path d="M0 0 C85.47 0 170.94 0 259 0 C259 64.02 259 128.04 259 194 C173.53 194 88.06 194 0 194 C0 129.98 0 65.96 0 0 Z " fill="#737475" transform="translate(0,0)"/>
<path d="M0 0 C58.41 0 116.82 0 177 0 C177 1.65 177 3.3 177 5 C155.55 5.33 134.1 5.66 112 6 C111.67 11.28 111.34 16.56 111 22 C110.67 24.31 110.34 26.62 110 29 C109.8250257 30.54074589 109.65707223 32.08232628 109.5 33.625 C109.15240447 36.80148843 108.70217416 39.87922598 108 43 C107.855625 43.67804687 107.71125 44.35609375 107.5625 45.0546875 C106.54788775 49.76312246 105.36904174 54.37948414 104 59 C103.5359375 60.670625 103.5359375 60.670625 103.0625 62.375 C100.71384657 70.38805289 97.86485778 77.58670554 94 85 C93.07933395 86.81047178 92.16256037 88.62292909 91.25 90.4375 C90.84265625 91.24058594 90.4353125 92.04367188 90.015625 92.87109375 C88.89738379 95.10273554 88.89738379 95.10273554 88 98 C87.01 99.98 87.01 99.98 86 102 C79.73 102.33 73.46 102.66 67 103 C66.67 102.01 66.34 101.02 66 100 C63.62694422 99.58219121 63.62694422 99.58219121 61 100 C59.1375562 102.40858714 59.1375562 102.40858714 58 105 C58.99 105.99 59.98 106.98 61 108 C61.495 106.515 61.495 106.515 62 105 C62.78375 105.04125 63.5675 105.0825 64.375 105.125 C67.16116119 105.28728734 67.16116119 105.28728734 69 103 C71.58064129 102.85502015 74.04943884 102.81322455 76.625 102.875 C77.68460938 102.88853516 77.68460938 102.88853516 78.765625 102.90234375 C80.51056098 102.92592397 82.25532295 102.96179539 84 103 C81.95559034 106.53125305 79.87722583 109.12277417 77 112 C76.5875 112.495 76.175 112.99 75.75 113.5 C70.96528052 117.60118813 64.72885086 117.33158032 58.76953125 117.4140625 C57.89729416 117.43342865 57.02505707 117.4527948 56.12638855 117.4727478 C53.35519001 117.53222004 50.58394777 117.57876506 47.8125 117.625 C45.93813359 117.66321602 44.06378407 117.70226983 42.18945312 117.7421875 C29.76173458 118 29.76173458 118 25 118 C25.33 117.34 25.66 116.68 26 116 C31.94 116 37.88 116 44 116 C44 114.02 44 112.04 44 110 C43.34 110 42.68 110 42 110 C42 109.34 42 108.68 42 108 C44.97 108 47.94 108 51 108 C51 107.01 51 106.02 51 105 C50.06027344 105.12568359 50.06027344 105.12568359 49.1015625 105.25390625 C48.28429687 105.35574219 47.46703125 105.45757812 46.625 105.5625 C45.40683594 105.71912109 45.40683594 105.71912109 44.1640625 105.87890625 C42 106 42 106 40 105 C37.64382239 105.03712765 35.28851549 105.15225785 32.9375 105.3125 C31.03291016 105.43044922 31.03291016 105.43044922 29.08984375 105.55078125 C27.56037109 105.77314453 27.56037109 105.77314453 26 106 C25.67 106.66 25.34 107.32 25 108 C21.04 107.67 17.08 107.34 13 107 C12.67 106.01 12.34 105.02 12 104 C11.01979625 102.9805881 10.02196992 101.97753644 9 101 C9 100.67 9 100.34 9 100 C17.415 99.505 17.415 99.505 26 99 C19.73 98.67 13.46 98.34 7 98 C6.67 97.01 6.34 96.02 6 95 C5.53722656 94.55269531 5.07445313 94.10539062 4.59765625 93.64453125 C0.05386137 88.9674221 -2.10482067 81.12288708 -4 75 C-4.33 74.195625 -4.66 73.39125 -5 72.5625 C-6.22443866 69.42487593 -7.10445459 66.24635211 -8 63 C-8.33 61.88625 -8.66 60.7725 -9 59.625 C-10.15340539 55.44390547 -11.10025418 51.24165888 -12 47 C-12.185625 46.13375 -12.37125 45.2675 -12.5625 44.375 C-13.13580234 41.26278727 -13.55248956 38.13257308 -14 35 C-14.2475 33.8553125 -14.2475 33.8553125 -14.5 32.6875 C-15.44024694 27.63367269 -16.03212178 22.45553152 -15.96484375 17.3125 C-15.83328157 14.97213204 -15.83328157 14.97213204 -17 13 C-15.17662109 12.90912109 -15.17662109 12.90912109 -13.31640625 12.81640625 C-11.73175772 12.73201668 -10.14712298 12.6473679 -8.5625 12.5625 C-7.76005859 12.52318359 -6.95761719 12.48386719 -6.13085938 12.44335938 C-2.24760439 12.5945704 -2.24760439 12.5945704 1 11 C1.07148199 9.64756083 1.08399454 8.29165633 1.0625 6.9375 C1.041875 5.638125 1.02125 4.33875 1 3 C0.34 2.67 -0.32 2.34 -1 2 C-0.67 1.34 -0.34 0.68 0 0 Z M34 106 C36.64 106 39.28 106 42 106 C41.01 107.485 41.01 107.485 40 109 C36.375 109.1875 36.375 109.1875 33 109 C33.33 108.01 33.66 107.02 34 106 Z M35 110 C37.31 110 39.62 110 42 110 C42 110.33 42 110.66 42 111 C39.69 111 37.38 111 35 111 C35 110.67 35 110.34 35 110 Z " fill="#40609D" transform="translate(82,0)"/>
<path d="M0 0 C27.06 0 54.12 0 82 0 C82.99 5.94 82.99 5.94 84 12 C83.34 12.66 82.68 13.32 82 14 C81.88214322 18.9990917 83.0763047 23.43122366 85 28 C85.34541851 30.33157492 85.67794257 32.66508361 86 35 C86.64949225 37.33817209 87.31744011 39.67126625 88 42 C88.29670217 43.47816484 88.58811911 44.9573977 88.875 46.4375 C89.72133736 50.38707435 91.15109471 53.61452844 93.0625 57.15625 C94 59 94 59 95 62.1875 C96.14303262 65.40227925 97.82272824 67.40132081 100 70 C100.33 70.99 100.66 71.98 101 73 C101.98020375 74.0194119 102.97803008 75.02246356 104 76 C104 76.33 104 76.66 104 77 C90.635 77.495 90.635 77.495 77 78 C76.67 78.66 76.34 79.32 76 80 C50.92 79.67 25.84 79.34 0 79 C0 52.93 0 26.86 0 0 Z " fill="#6C6C6D" transform="translate(0,0)"/>
<path d="M0 0 C10.23 0 20.46 0 31 0 C30.67 2.31 30.34 4.62 30 7 C29.81881756 8.83195573 29.65109151 10.6653174 29.5 12.5 C28.98286613 18.3985582 28.24130233 24.20725578 27 30 C26.855625 30.680625 26.71125 31.36125 26.5625 32.0625 C24.487118 41.66114175 21.71008423 50.78472365 17.5625 59.6875 C17.11293945 60.68233398 17.11293945 60.68233398 16.65429688 61.69726562 C15.13262081 64.97497567 13.74822143 67.62156983 11 70 C11 70.33 11 70.66 11 71 C4.50403621 71.12661746 -1.99161036 71.21427346 -8.48852539 71.2746582 C-10.69925833 71.2998263 -12.90990788 71.3339638 -15.12036133 71.37719727 C-18.29529367 71.43774679 -21.46912761 71.4661867 -24.64453125 71.48828125 C-25.63524124 71.51408768 -26.62595123 71.5398941 -27.64668274 71.56648254 C-30.19628948 71.56752832 -32.50739217 71.53676108 -35 71 C-37.05029297 68.56494141 -37.05029297 68.56494141 -38 66 C-38.51175781 65.49597656 -39.02351563 64.99195312 -39.55078125 64.47265625 C-41.36164175 62.6325096 -42.17055479 60.80257947 -43.1875 58.4375 C-43.53167969 57.65246094 -43.87585938 56.86742187 -44.23046875 56.05859375 C-45 54 -45 54 -45 52 C-35.76 51.67 -26.52 51.34 -17 51 C-19.97 50.67 -22.94 50.34 -26 50 C-25.195625 49.278125 -24.39125 48.55625 -23.5625 47.8125 C-20.5520076 44.99362408 -20.5520076 44.99362408 -20 40 C-15.38 39.67 -10.76 39.34 -6 39 C-6.165 37.02 -6.33 35.04 -6.5 33 C-6.67150575 30.66701736 -6.83849851 28.33369653 -7 26 C-7.05671875 25.24332031 -7.1134375 24.48664062 -7.171875 23.70703125 C-7.53656341 14.86333721 -3.87757901 7.75515802 0 0 Z " fill="#000000" transform="translate(141,0)"/>
<path d="M0 0 C7.26 0 14.52 0 22 0 C25 7 25 7 25.9375 10.125 C27.12855715 13.34786053 28.80686021 15.38238154 31 18 C31.495 19.485 31.495 19.485 32 21 C32.98020375 22.0194119 33.97803008 23.02246356 35 24 C35 24.33 35 24.66 35 25 C21.635 25.495 21.635 25.495 8 26 C7.67 26.66 7.34 27.32 7 28 C-18.08 27.67 -43.16 27.34 -69 27 C-69 18.75 -69 10.5 -69 2 C-46.23 2 -23.46 2 0 2 C0 1.34 0 0.68 0 0 Z " fill="#6B6C6C" transform="translate(69,52)"/>
<path d="M0 0 C19.47 0 38.94 0 59 0 C57.86761392 3.39715824 56.80897351 6.50441872 55.4375 9.75 C53.66999727 14.43656026 53.24801034 19.02429259 53 24 C52.95875 24.76570313 52.9175 25.53140625 52.875 26.3203125 C52.68371227 33.18275967 53.57875341 39.9557977 57 46 C57.66 46.66 58.32 47.32 59 48 C51.08 48.33 43.16 48.66 35 49 C37.31 49.33 39.62 49.66 42 50 C42.33 50.66 42.66 51.32 43 52 C32.94401799 52.10055982 23.01292948 52.09945892 13 51 C11.4880525 46.78814625 10.43556691 42.60314811 9.50390625 38.23828125 C8.80200169 35.12051915 7.8855356 32.06985674 7 29 C6.64628502 27.33753959 6.30404678 25.67225729 6 24 C7.98 23.67 9.96 23.34 12 23 C11.87625 21.576875 11.87625 21.576875 11.75 20.125 C11.70784024 14.99204922 13.92614984 10.60135505 16 6 C13.87506859 5.97306425 11.75004088 5.95363372 9.625 5.9375 C7.84996094 5.92009766 7.84996094 5.92009766 6.0390625 5.90234375 C3.08078479 5.78533407 3.08078479 5.78533407 1 7 C1 5.68 1 4.36 1 3 C0.34 2.67 -0.32 2.34 -1 2 C-0.67 1.34 -0.34 0.68 0 0 Z " fill="#353535" transform="translate(82,0)"/>
<path d="M0 0 C1.26108078 0.00022659 2.52216156 0.00045319 3.82145691 0.00068665 C5.19778803 0.01600655 6.57411553 0.03165453 7.95043945 0.04760742 C9.35862273 0.05320357 10.76681185 0.05747358 12.17500305 0.06047058 C15.87904014 0.07191799 19.5827236 0.10138383 23.28662109 0.13458252 C27.06709001 0.16528591 30.84761614 0.17897646 34.62817383 0.1940918 C42.04436924 0.22625409 49.46020034 0.27902065 56.8762207 0.34057617 C56.8762207 6.61057617 56.8762207 12.88057617 56.8762207 19.34057617 C35.0962207 19.34057617 13.3162207 19.34057617 -9.1237793 19.34057617 C-9.4537793 20.00057617 -9.7837793 20.66057617 -10.1237793 21.34057617 C-16.3937793 21.01057617 -22.6637793 20.68057617 -29.1237793 20.34057617 C-29.1237793 20.01057617 -29.1237793 19.68057617 -29.1237793 19.34057617 C-22.8537793 19.34057617 -16.5837793 19.34057617 -10.1237793 19.34057617 C-9.91411273 14.21063875 -9.91411273 14.21063875 -9.73583984 9.07958984 C-9.46629183 3.85193247 -9.46629183 3.85193247 -7.97453308 1.62480164 C-5.29060136 -0.23756033 -3.24729906 -0.0194449 0 0 Z " fill="#777777" transform="translate(202.123779296875,4.659423828125)"/>
<path d="M0 0 C27.06 0 54.12 0 82 0 C82.99 5.94 82.99 5.94 84 12 C77.4 12 70.8 12 64 12 C64 12.66 64 13.32 64 14 C42.88 14 21.76 14 0 14 C0 9.38 0 4.76 0 0 Z " fill="#646E7A" transform="translate(0,0)"/>
<path d="M0 0 C1.45889648 -0.00386719 1.45889648 -0.00386719 2.94726562 -0.0078125 C4.47577148 0.00378906 4.47577148 0.00378906 6.03515625 0.015625 C7.05029297 0.00789063 8.06542969 0.00015625 9.11132812 -0.0078125 C10.08521484 -0.00523438 11.05910156 -0.00265625 12.0625 0 C12.95573975 0.00225586 13.84897949 0.00451172 14.76928711 0.00683594 C17.09765625 0.265625 17.09765625 0.265625 20.09765625 2.265625 C22.08735575 2.65576216 24.08785494 2.99765149 26.09765625 3.265625 C26.09765625 3.925625 26.09765625 4.585625 26.09765625 5.265625 C30.38765625 5.595625 34.67765625 5.925625 39.09765625 6.265625 C38.16851008 8.37349383 37.22902646 10.47680812 36.28515625 12.578125 C35.76308594 13.74988281 35.24101562 14.92164063 34.703125 16.12890625 C33.33429392 18.80328912 32.303094 20.3251047 30.09765625 22.265625 C30.09765625 22.595625 30.09765625 22.925625 30.09765625 23.265625 C23.60169246 23.39224246 17.10604589 23.47989846 10.60913086 23.5402832 C8.39839792 23.5654513 6.18774837 23.5995888 3.97729492 23.64282227 C0.80236258 23.70337179 -2.37147136 23.7318117 -5.546875 23.75390625 C-6.53758499 23.77971268 -7.52829498 23.8055191 -8.54902649 23.83210754 C-11.09863323 23.83315332 -13.40973592 23.80238608 -15.90234375 23.265625 C-17.95263672 20.83056641 -17.95263672 20.83056641 -18.90234375 18.265625 C-19.41410156 17.76160156 -19.92585938 17.25757812 -20.453125 16.73828125 C-22.2639855 14.8981346 -23.07289854 13.06820447 -24.08984375 10.703125 C-24.43402344 9.91808594 -24.77820313 9.13304687 -25.1328125 8.32421875 C-25.90234375 6.265625 -25.90234375 6.265625 -25.90234375 4.265625 C-16.66234375 3.935625 -7.42234375 3.605625 2.09765625 3.265625 C-0.87234375 2.935625 -3.84234375 2.605625 -6.90234375 2.265625 C-4.3779468 -0.25877195 -3.49177556 0.00882956 0 0 Z " fill="#0C0C0C" transform="translate(121.90234375,47.734375)"/>
<path d="M0 0 C8.25 0.33 16.5 0.66 25 1 C25.495 2.485 25.495 2.485 26 4 C26.98020375 5.0194119 27.97803008 6.02246356 29 7 C29 7.33 29 7.66 29 8 C15.635 8.495 15.635 8.495 2 9 C1.67 9.66 1.34 10.32 1 11 C-24.08 10.67 -49.16 10.34 -75 10 C-75 7.69 -75 5.38 -75 3 C-50.58 3 -26.16 3 -1 3 C-0.67 2.01 -0.34 1.02 0 0 Z " fill="#595959" transform="translate(75,69)"/>
<path d="M0 0 C1.26108078 0.00022659 2.52216156 0.00045319 3.82145691 0.00068665 C5.19778803 0.01600655 6.57411553 0.03165453 7.95043945 0.04760742 C9.35862273 0.05320357 10.76681185 0.05747358 12.17500305 0.06047058 C15.87904014 0.07191799 19.5827236 0.10138383 23.28662109 0.13458252 C27.06709001 0.16528591 30.84761614 0.17897646 34.62817383 0.1940918 C42.04435057 0.22625401 49.46023606 0.27744862 56.8762207 0.34057617 C56.8762207 3.31057617 56.8762207 6.28057617 56.8762207 9.34057617 C35.4262207 9.34057617 13.9762207 9.34057617 -8.1237793 9.34057617 C-8.4537793 10.00057617 -8.7837793 10.66057617 -9.1237793 11.34057617 C-9.4916301 3.86094313 -9.4916301 3.86094313 -7.98820496 1.73417664 C-5.30614427 -0.2705807 -3.32537105 -0.0199124 0 0 Z " fill="#7A7A7B" transform="translate(202.123779296875,4.659423828125)"/>
<path d="M0 0 C5.66666667 0 11.33333333 0 17 0 C16.67 0.99 16.34 1.98 16 3 C16.99 3.99 17.98 4.98 19 6 C19.33 5.01 19.66 4.02 20 3 C20.78375 3.04125 21.5675 3.0825 22.375 3.125 C25.16116119 3.28728734 25.16116119 3.28728734 27 1 C29.58064129 0.85502015 32.04943884 0.81322455 34.625 0.875 C35.33140625 0.88402344 36.0378125 0.89304687 36.765625 0.90234375 C38.51056098 0.92592397 40.25532295 0.96179539 42 1 C39.95559034 4.53125305 37.87722583 7.12277417 35 10 C34.5875 10.495 34.175 10.99 33.75 11.5 C28.96528052 15.60118813 22.72885086 15.33158032 16.76953125 15.4140625 C15.46117561 15.44311172 15.46117561 15.44311172 14.12638855 15.4727478 C11.35519001 15.53222004 8.58394777 15.57876506 5.8125 15.625 C3.93813359 15.66321602 2.06378407 15.70226983 0.18945312 15.7421875 C-12.23826542 16 -12.23826542 16 -17 16 C-16.67 15.34 -16.34 14.68 -16 14 C-10.06 14 -4.12 14 2 14 C2 12.02 2 10.04 2 8 C1.34 8 0.68 8 0 8 C0 7.34 0 6.68 0 6 C2.97 6 5.94 6 9 6 C9 5.01 9 4.02 9 3 C8.37351563 3.09539062 7.74703125 3.19078125 7.1015625 3.2890625 C5.87566406 3.45535156 5.87566406 3.45535156 4.625 3.625 C3.81289062 3.74101563 3.00078125 3.85703125 2.1640625 3.9765625 C1.44992188 3.98429687 0.73578125 3.99203125 0 4 C-0.66 3.34 -1.32 2.68 -2 2 C-1.34 2 -0.68 2 0 2 C0 1.34 0 0.68 0 0 Z M-8 4 C-5.36 4 -2.72 4 0 4 C-0.99 5.485 -0.99 5.485 -2 7 C-5.625 7.1875 -5.625 7.1875 -9 7 C-8.67 6.01 -8.34 5.02 -8 4 Z M-7 8 C-4.69 8 -2.38 8 0 8 C0 8.33 0 8.66 0 9 C-2.31 9 -4.62 9 -7 9 C-7 8.67 -7 8.34 -7 8 Z " fill="#394471" transform="translate(124,102)"/>
<path d="M0 0 C21.45 0 42.9 0 65 0 C65 1.32 65 2.64 65 4 C43.55 4 22.1 4 0 4 C-0.33 3.34 -0.66 2.68 -1 2 C-0.67 1.34 -0.34 0.68 0 0 Z " fill="#7A7A7A" transform="translate(194,0)"/>
<path d="M0 0 C1.26115631 0.00007553 2.52231262 0.00015106 3.82168579 0.00022888 C5.20322712 0.0053359 6.58476806 0.0105519 7.96630859 0.01586914 C9.37592519 0.01773395 10.78554244 0.01915756 12.19515991 0.02015686 C15.90728542 0.02397706 19.61937187 0.03380311 23.33148193 0.04486084 C27.11860628 0.05508564 30.90573693 0.05965677 34.69287109 0.06469727 C42.12518058 0.07542581 49.55745786 0.09249628 56.98974609 0.11352539 C56.98974609 1.10352539 56.98974609 2.09352539 56.98974609 3.11352539 C35.53974609 3.11352539 14.08974609 3.11352539 -8.01025391 3.11352539 C-8.01025391 2.45352539 -8.01025391 1.79352539 -8.01025391 1.11352539 C-5.26360002 -0.25980155 -3.07401323 -0.00612353 0 0 Z " fill="#A5A5A5" transform="translate(202.01025390625,4.886474609375)"/>
<path d="M0 0 C5.66666667 0 11.33333333 0 17 0 C16.67 0.99 16.34 1.98 16 3 C16.99 3.99 17.98 4.98 19 6 C18.67 6.99 18.34 7.98 18 9 C11.99505557 9.96508035 5.65524423 10.82762212 0 8 C0 7.34 0 6.68 0 6 C2.97 6 5.94 6 9 6 C9 5.01 9 4.02 9 3 C8.37351563 3.09539062 7.74703125 3.19078125 7.1015625 3.2890625 C5.87566406 3.45535156 5.87566406 3.45535156 4.625 3.625 C3.81289062 3.74101563 3.00078125 3.85703125 2.1640625 3.9765625 C1.44992188 3.98429687 0.73578125 3.99203125 0 4 C-0.66 3.34 -1.32 2.68 -2 2 C-1.34 2 -0.68 2 0 2 C0 1.34 0 0.68 0 0 Z M-8 4 C-5.36 4 -2.72 4 0 4 C-0.99 5.485 -0.99 5.485 -2 7 C-5.625 7.1875 -5.625 7.1875 -9 7 C-8.67 6.01 -8.34 5.02 -8 4 Z M19 4 C20.65 4 22.3 4 24 4 C22.02 4.99 22.02 4.99 20 6 C19.67 5.34 19.34 4.68 19 4 Z M-7 8 C-4.69 8 -2.38 8 0 8 C0 8.33 0 8.66 0 9 C-2.31 9 -4.62 9 -7 9 C-7 8.67 -7 8.34 -7 8 Z M2 10 C4.64 10 7.28 10 10 10 C10 10.33 10 10.66 10 11 C7.36 11 4.72 11 2 11 C2 10.67 2 10.34 2 10 Z " fill="#010101" transform="translate(124,102)"/>
<path d="M0 0 C7.26 0 14.52 0 22 0 C21 2 20 4 19 6 C9.595 6.495 9.595 6.495 0 7 C-0.33 6.01 -0.66 5.02 -1 4 C-1.99 3.34 -2.98 2.68 -4 2 C-2.68 2 -1.36 2 0 2 C0 1.34 0 0.68 0 0 Z " fill="#011C84" transform="translate(149,96)"/>
<path d="M0 0 C9.9 0 19.8 0 30 0 C29.34 1.65 28.68 3.3 28 5 C23.89587259 5.16764279 19.79169203 5.3339474 15.6875 5.5 C13.93663086 5.57154297 13.93663086 5.57154297 12.15039062 5.64453125 C10.47299805 5.71220703 10.47299805 5.71220703 8.76171875 5.78125 C7.73006592 5.82314453 6.69841309 5.86503906 5.63549805 5.90820312 C3.75788811 5.97360204 1.87874855 6 0 6 C-0.33 5.34 -0.66 4.68 -1 4 C-2.65 4 -4.3 4 -6 4 C-6 3.34 -6 2.68 -6 2 C-4.02 2 -2.04 2 0 2 C0 1.34 0 0.68 0 0 Z M-11 4 C-9.35 4 -7.7 4 -6 4 C-6 4.33 -6 4.66 -6 5 C-7.65 5 -9.3 5 -11 5 C-11 4.67 -11 4.34 -11 4 Z " fill="#000000" transform="translate(146,84)"/>
<path d="M0 0 C2.375 -0.1875 2.375 -0.1875 5 0 C7.07538031 3.11307046 7 3.47265234 7 7 C3.92382812 7.29296875 3.92382812 7.29296875 0.84765625 7.5859375 C0.23792969 7.72257812 -0.37179688 7.85921875 -1 8 C-1.33 8.66 -1.66 9.32 -2 10 C-5.96 9.67 -9.92 9.34 -14 9 C-14.33 8.01 -14.66 7.02 -15 6 C-15.98020375 4.9805881 -16.97803008 3.97753644 -18 3 C-18 2.67 -18 2.34 -18 2 C-12.06 2 -6.12 2 0 2 C0 1.34 0 0.68 0 0 Z M7 4 C9.31 4 11.62 4 14 4 C14 4.33 14 4.66 14 5 C11.69 5.33 9.38 5.66 7 6 C7 5.34 7 4.68 7 4 Z " fill="#010204" transform="translate(109,98)"/>
<path d="M0 0 C3.3 0 6.6 0 10 0 C8.86543351 2.26913298 7.99301736 3.41933106 6 5 C1.43342066 6.24543073 -2.3768446 5.83216797 -7 5 C-3.375 2 -3.375 2 0 2 C0 1.34 0 0.68 0 0 Z M-24 4 C-21.69 4 -19.38 4 -17 4 C-17 4.66 -17 5.32 -17 6 C-11.39 6 -5.78 6 0 6 C0 6.33 0 6.66 0 7 C-5.64167095 7.14289446 -11.28335398 7.28529844 -16.92504883 7.42724609 C-18.84464859 7.47561345 -20.76424498 7.5241153 -22.68383789 7.57275391 C-25.44156024 7.64260575 -28.19929435 7.71197537 -30.95703125 7.78125 C-31.81649857 7.80312378 -32.67596588 7.82499756 -33.56147766 7.84753418 C-34.76238289 7.87756531 -34.76238289 7.87756531 -35.98754883 7.90820312 C-36.6914827 7.92596802 -37.39541656 7.94373291 -38.12068176 7.96203613 C-39.74683864 7.99488592 -41.37351136 8 -43 8 C-42.67 7.34 -42.34 6.68 -42 6 C-36.06 6 -30.12 6 -24 6 C-24 5.34 -24 4.68 -24 4 Z " fill="#000002" transform="translate(150,110)"/>
<path d="M0 0 C1.98 0 3.96 0 6 0 C5.67 0.99 5.34 1.98 5 3 C5.66 3.33 6.32 3.66 7 4 C7 3.34 7 2.68 7 2 C9.31 2 11.62 2 14 2 C13.67 2.99 13.34 3.98 13 5 C13.66 5.33 14.32 5.66 15 6 C15 5.34 15 4.68 15 4 C16.65 4 18.3 4 20 4 C20.33 4.99 20.66 5.98 21 7 C16.43373517 7.93846547 12.39133747 7.99038189 7.75 7.625 C5.91695312 7.48964844 5.91695312 7.48964844 4.046875 7.3515625 C0.53199768 6.94599973 -1.86816385 5.56591807 -5 4 C-5 3.34 -5 2.68 -5 2 C-3.35 2 -1.7 2 0 2 C0 1.34 0 0.68 0 0 Z M-3 6 C-1 7 -1 7 -1 7 Z M7 8 C9.64 8 12.28 8 15 8 C15 8.33 15 8.66 15 9 C12.36 9 9.72 9 7 9 C7 8.67 7 8.34 7 8 Z " fill="#000100" transform="translate(118,88)"/>
<path d="M0 0 C1.4540625 0.0309375 1.4540625 0.0309375 2.9375 0.0625 C3.2675 1.7125 3.5975 3.3625 3.9375 5.0625 C2.968125 5.35125 1.99875 5.64 1 5.9375 C-2.16914203 6.70464682 -2.16914203 6.70464682 -3.0625 9.0625 C-5.7025 9.0625 -8.3425 9.0625 -11.0625 9.0625 C-11.0625 6.7525 -11.0625 4.4425 -11.0625 2.0625 C-9.928125 1.918125 -8.79375 1.77375 -7.625 1.625 C-3.97252634 1.04829363 -3.54680005 0.07238367 0 0 Z " fill="#7D7D7D" transform="translate(146.0625,98.9375)"/>
<path d="M0 0 C6.6 0 13.2 0 20 0 C19.01 1.65 18.02 3.3 17 5 C13.71484375 5.671875 13.71484375 5.671875 9.9375 5.75 C5.30357625 5.69095813 5.30357625 5.69095813 1 7 C1 5.68 1 4.36 1 3 C0.34 2.67 -0.32 2.34 -1 2 C-0.67 1.34 -0.34 0.68 0 0 Z " fill="#010203" transform="translate(82,0)"/>
<path d="M0 0 C7.26 0 14.52 0 22 0 C21 2 21 2 20 3 C16.74509822 3.40912746 13.46250415 3.51680833 10.1875 3.6875 C9.27162109 3.74744141 8.35574219 3.80738281 7.41210938 3.86914062 C6.08469727 3.9397168 6.08469727 3.9397168 4.73046875 4.01171875 C3.51460083 4.08072388 3.51460083 4.08072388 2.27416992 4.15112305 C-0.26682082 3.98226923 -1.82007857 3.27810033 -4 2 C-2.68 2 -1.36 2 0 2 C0 1.34 0 0.68 0 0 Z " fill="#000003" transform="translate(149,96)"/>
<path d="M0 0 C2.05078125 0.03255208 4.1015625 0.06510417 6.15234375 0.09765625 C6.15234375 1.08765625 6.15234375 2.07765625 6.15234375 3.09765625 C3.18234375 3.09765625 0.21234375 3.09765625 -2.84765625 3.09765625 C-3.17765625 3.75765625 -3.50765625 4.41765625 -3.84765625 5.09765625 C-5.82765625 4.43765625 -7.80765625 3.77765625 -9.84765625 3.09765625 C-9.84765625 2.76765625 -9.84765625 2.43765625 -9.84765625 2.09765625 C-8.71328125 1.95328125 -7.57890625 1.80890625 -6.41015625 1.66015625 C-3.51115113 1.2024186 -2.54328457 0.13442307 0 0 Z " fill="#9F9F9F" transform="translate(126.84765625,104.90234375)"/>
<path d="M0 0 C1.4540625 0.0309375 1.4540625 0.0309375 2.9375 0.0625 C2.9375 1.0525 2.9375 2.0425 2.9375 3.0625 C0.6275 3.0625 -1.6825 3.0625 -4.0625 3.0625 C-4.0625 3.7225 -4.0625 4.3825 -4.0625 5.0625 C-6.3725 5.0625 -8.6825 5.0625 -11.0625 5.0625 C-11.0625 4.0725 -11.0625 3.0825 -11.0625 2.0625 C-9.928125 1.918125 -8.79375 1.77375 -7.625 1.625 C-3.97252634 1.04829363 -3.54680005 0.07238367 0 0 Z " fill="#B3B3B3" transform="translate(146.0625,98.9375)"/>
<path d="M0 0 C1.98 0 3.96 0 6 0 C6 0.99 6 1.98 6 3 C5.360625 3.12375 4.72125 3.2475 4.0625 3.375 C3.381875 3.58125 2.70125 3.7875 2 4 C1.67 4.66 1.34 5.32 1 6 C-1.31 6 -3.62 6 -6 6 C-6 5.01 -6 4.02 -6 3 C-4.02 2.67 -2.04 2.34 0 2 C0 1.34 0 0.68 0 0 Z " fill="#636363" transform="translate(140,90)"/>
<path d="M0 0 C0 0.99 0 1.98 0 3 C-2.31 3 -4.62 3 -7 3 C-7 3.66 -7 4.32 -7 5 C-8.98 5 -10.96 5 -13 5 C-13 4.01 -13 3.02 -13 2 C-8.46298506 0.54815522 -4.81938524 -0.23509196 0 0 Z " fill="#B8B8B8" transform="translate(147,87)"/>
<path d="M0 0 C1.32 0.66 2.64 1.32 4 2 C0.09971775 4.60018816 -3.47434569 4.15085514 -8 4 C-8 3.34 -8 2.68 -8 2 C-5.36 2 -2.72 2 0 2 C0 1.34 0 0.68 0 0 Z M-5 4 C-3.35 4 -1.7 4 0 4 C0 4.33 0 4.66 0 5 C-1.65 5 -3.3 5 -5 5 C-5 4.67 -5 4.34 -5 4 Z " fill="#000000" transform="translate(108,110)"/>
</svg>
